<svg id="Layer_1" data-name="Layer 1" xmlns="http://www.w3.org/2000/svg" viewBox="0 0 30 30"><title>Spade-2</title><path d="M14.77392,0h.47065a5.2328,5.2328,0,0,1,.82562.62463A91.65484,91.65484,0,0,0,24.014,8.6076c1.074.94082,2.24065,1.78267,3.26556,2.77189A8.16953,8.16953,0,0,1,29.788,19.35361a8.53964,8.53964,0,0,1-6.96716,6.5881,6.78463,6.78463,0,0,1-4.62041-.63161c-.40542-.22592-.78117-.50466-1.20159-.77948,0,.497.01907.98141-.00384,1.4638a2.61675,2.61675,0,0,0,1.3768,2.53114c.36827.22152.71416.48,1.0695.72278a.40507.40507,0,0,1,.20134.4998c-.07379.20367-.24548.25206-.45026.25186q-4.20544-.004-8.41092-.00211a.74658.74658,0,0,1-.14653-.00718.37151.37151,0,0,1-.20637-.62944,3.53651,3.53651,0,0,1,.48813-.37367c.35429-.24433.72-.47264,1.06913-.7239a2.02661,2.02661,0,0,0,.9303-1.33912c.10188-.78476.09927-1.583.14383-2.42054a.99354.99354,0,0,0-.15194.06651,6.4524,6.4524,0,0,1-5.56423,1.3839A8.30654,8.30654,0,0,1,.4205,20.027a8.117,8.117,0,0,1,2.38131-8.70909c.784-.76018,1.68546-1.399,2.51748-2.11153A90.92828,90.92828,0,0,0,13.96846.60347,4.97492,4.97492,0,0,1,14.77392,0Z"/></svg>